<?xml version="1.0" encoding="utf-8"?>
<!-- Generator: Adobe Illustrator 19.1.0, SVG Export Plug-In . SVG Version: 6.00 Build 0)  -->
<svg version="1.1" id="Layer_1" xmlns="http://www.w3.org/2000/svg" xmlns:xlink="http://www.w3.org/1999/xlink" x="0px" y="0px"
	 viewBox="0 0 529.8 131.4" style="enable-background:new 0 0 529.8 131.4;" xml:space="preserve">
<style type="text/css">
	.st0{fill:#FFFFFF;stroke:#EE1C4E;stroke-miterlimit:10;}
	.st1{fill:#FFFFFF;}
</style>
<path d="M216.8,8.3c-36.6,0-66.3,27.5-66.3,61.5c0,33.9,29.7,61.5,66.3,61.5c36.6,0,66.3-27.5,66.3-61.5
	C283.1,35.9,253.4,8.3,216.8,8.3z M216.8,97.2c-16.4,0-29.6-12.3-29.6-27.4c0-15.2,13.3-27.4,29.6-27.4c16.4,0,29.6,12.3,29.6,27.4
	C246.4,84.9,233.1,97.2,216.8,97.2z"/>
<polygon points="295.6,131.3 295.6,8.3 332.1,8.3 378.2,74.4 378.2,8.3 414.6,8.3 414.6,131.3 378.3,131.3 332.1,69.8 332.1,131.3 
	"/>
<polygon points="433.2,8.3 433.2,131.3 529.8,131.3 529.8,97.5 469.7,97.5 469.7,86.7 529.8,86.7 529.8,52.9 469.6,52.9 469.6,42.1 
	529.8,42.1 529.8,8.3 "/>
<path class="st0" d="M47.8,82.2"/>
<path class="st0" d="M64.1,20.7"/>
<rect x="57" y="8.2" width="36.5" height="123.1"/>
<rect x="8.8" y="52.9" width="132.9" height="33.8"/>
<path class="st1" d="M208,0.1c-36.6,0-66.3,27.5-66.3,61.5c0,33.9,29.7,61.5,66.3,61.5c36.6,0,66.3-27.5,66.3-61.5
	C274.4,27.6,244.7,0.1,208,0.1z M208,89c-16.4,0-29.6-12.3-29.6-27.4c0-15.2,13.3-27.4,29.6-27.4c16.4,0,29.6,12.3,29.6,27.4
	C237.6,76.7,224.4,89,208,89z"/>
<polygon class="st1" points="286.9,123 286.9,0.1 323.4,0.1 369.4,66.2 369.4,0.1 405.9,0.1 405.9,123 369.5,123 323.4,61.6 
	323.4,123 "/>
<polygon class="st1" points="424.4,0.1 424.4,123 521,123 521,89.2 460.9,89.2 460.9,78.5 521,78.5 521,44.7 460.8,44.7 460.8,33.9 
	521,33.9 521,0.1 "/>
<path class="st1" d="M39,73.9"/>
<path class="st1" d="M55.4,12.5"/>
<rect x="48.2" class="st1" width="36.5" height="123.1"/>
<rect x="0" y="44.7" class="st1" width="132.9" height="33.8"/>
<polygon points="93.5,8.2 84.7,0 84.7,8.2 "/>
<polygon points="141.7,52.9 132.9,44.7 132.9,52.9 "/>
<polygon points="48.2,123.1 57,131.4 57,123.1 "/>
<polygon points="8.8,86.7 0,78.5 8.8,78.5 "/>
<polygon points="295.6,131.3 286.9,123 295.6,123 "/>
<polygon points="378.3,131.3 369.5,123 373.1,123 "/>
<polygon points="332.1,8.3 323.4,0.1 329.1,8.3 "/>
<polygon points="405.9,0.1 414.6,8.3 405.9,8.3 "/>
<polygon points="433.2,131.3 424.4,123 433.2,123 "/>
<polygon points="529.8,97.5 521,89.2 521,97.5 "/>
<polygon points="521,44.7 529.8,52.9 521,52.9 "/>
<polygon points="529.8,8.3 521,0.1 521,8.3 "/>
<polygon points="323.4,0.1 335.4,8.3 369.4,57.2 369.4,66.2 "/>
</svg>
